<?xml version="1.0" encoding="UTF-8"?>
<!DOCTYPE svg PUBLIC "-//W3C//DTD SVG 1.1//EN" "http://www.w3.org/Graphics/SVG/1.1/DTD/svg11.dtd">
<!-- Creator: CorelDRAW 2020 (64-Bit) -->
<svg xmlns="http://www.w3.org/2000/svg" xml:space="preserve" width="564.09mm" height="113.416mm" version="1.1" style="shape-rendering:geometricPrecision; text-rendering:geometricPrecision; image-rendering:optimizeQuality; fill-rule:evenodd; clip-rule:evenodd"
viewBox="0 0 13749.67 2764.52"
 xmlns:xlink="http://www.w3.org/1999/xlink"
 xmlns:xodm="http://www.corel.com/coreldraw/odm/2003">
 <defs>
  <style type="text/css">
   <![CDATA[
    .fil0 {fill:#1B8070}
    .fil2 {fill:#1D7E70}
    .fil3 {fill:#217D71}
    .fil4 {fill:#217E6D}
    .fil5 {fill:#45756C}
    .fil1 {fill:white}
   ]]>
  </style>
 </defs>
 <g id="Capa_x0020_1">
  <metadata id="CorelCorpID_0Corel-Layer"/>
  <g id="_3252443305776">
   <path class="fil0" d="M2967.28 1392.92c-22.97,44.95 -106.25,121.53 -143.98,162.1 -32.19,34.62 -111.01,125.37 -152.73,144.6 -4.46,15.39 3.28,-0.64 -7.08,14.74 -1.21,1.8 -5.45,7.15 -7.03,8.93 -3.96,4.45 -12.95,11.83 -18.17,16.12 -13.81,11.37 -29.41,23.69 -45.48,32.29 -50.13,26.82 -366.41,14.95 -432.78,13.6l-23.59 3.79c-91.2,-14.84 -107.82,-15.82 -107.54,-116.31l0.41 -1075.18c0,-187.06 -34.04,-332.94 99.32,-323.99l23.97 -0.27c101.53,-7.05 291.94,-8.56 392.93,-1.58 51.69,3.57 161.77,107.39 199.08,152.03 17.16,20.54 8.06,5.97 19.15,30.21 30.97,6.62 250.17,251.29 262.06,282.94 40.91,108.84 -186.38,216.24 -213.64,310.67l167.57 156.19c25.75,23.14 64.2,51.79 53.95,104.66 -5.45,28.06 -42.28,73.06 -66.42,84.47zm-980.97 -1301.58l-31.52 50.55c14.41,18.47 18.51,26.65 42.99,28.59 -15.08,40.01 -2.97,57.61 -3.49,100.35 -31.6,15.54 -17.33,12.83 -21.18,-3.82 -0.59,-2.54 -2.76,-3.29 -4.33,-4.74 12.59,47.94 20.27,61.98 -20.07,75.47 -39.3,25.39 -332.67,664.54 -391.71,741.43 -23.77,84.6 -90.04,194.84 -131.26,266.62 33.88,180.35 200.57,381.97 297.98,460.51 330.9,266.78 776.2,328.54 1168.19,161.2 98.97,-42.25 162.8,-87.63 236.36,-142.08 50.45,-37.34 153.01,-142.38 182.5,-200.53 -2.24,-42.05 8.69,-7.55 -18.31,-29.72 -10.5,-8.63 -18.61,-10.78 -30.15,-20.55 -56.33,-47.69 -94.89,-132.03 -97.97,-210.8 -4.51,-115.33 -6.88,-290.9 1.66,-406.14l137.4 0.92c24.34,201.43 -50.25,496.57 94.39,516.81 100.24,-178.82 120.13,-489.38 64.26,-711.5 -42.85,-170.39 -109.67,-289.43 -213,-414.36 -15.73,-19.02 -28.64,-30.24 -49.4,-53.74 -20.55,-23.27 -35.47,-29.59 -52.61,-49.98 -19.02,-10.16 -37.19,-27.78 -54.74,-40.38 -71.76,-51.55 -97.75,-64.52 -178.63,-105.36 -182.32,-92.06 -439.93,-117.22 -645.02,-89.29 -65.01,8.85 -246.8,47.52 -282.37,80.55z"/>
   <path class="fil0" d="M-0 404.02l1416.47 5.9c-20.07,50.19 -41.12,83.84 -64.69,129.04 -25.39,48.71 -44.92,90.19 -70.11,136.76 -49.56,91.6 -91.44,177.01 -138.39,265.41l-696.07 1341.74c-23.05,43.94 -46.47,89.18 -69.95,136.69 -21.32,43.14 -55.16,93.58 -69.78,138.58l380.19 206.38 7.11 0 715.99 -1402.54c3.36,-74.24 -10.61,-68.85 -19.96,-134.57 -7.8,-54.81 -17.1,-86.22 -15.25,-148.24 6.55,-86.08 5.26,-248.67 32.77,-320.83 39.1,-102.59 53.86,-170.24 104.16,-257.57 144.5,-250.92 335.37,-332.26 356.87,-359.62l0.91 -31.98c-0.3,-26.97 -10.8,-52.93 -30.11,-76.67l-1840.17 2.53 0 369z"/>
   <path class="fil1" d="M8731.43 1638.32l0.59 -137.48c-93.54,0.78 -562.6,12.27 -635.92,-13.22 -64.48,-22.42 -67.83,-58.23 -86.29,-120.64l709.35 -4.24 0.19 -128.79 -709.5 -0.07c26.92,-163.41 134.56,-140.39 296.72,-140.39 91.73,0 351.76,11.65 423.62,-3.51l1.71 -127.27c-44.27,-12.53 -525.96,-8.54 -597.34,-2.82 -196.04,15.7 -270.6,127.99 -271.75,334.21 -1.15,205.25 66.79,316.16 258.45,339.54 162.07,19.77 438.16,6.94 610.17,4.66z"/>
   <path class="fil1" d="M5012.59 1637.84l-0.13 -136.31c-141.73,-3.24 -287.22,-0.43 -429.23,-0.42 -144.02,0 -281.29,15.18 -291.89,-137.9l711.38 -0.49 -0.48 -126.47 -710.95 -2.45c12.52,-158.75 140.82,-140.29 291.94,-140.29 142.31,0.01 284.62,0.17 426.92,-0.05l2.84 -135.19c-169.27,-6.74 -434.37,-11.95 -599.25,1.84 -197.53,16.53 -269.61,130.18 -270.17,333.95 -0.56,207.18 67.46,316.56 262.56,340.24 147.53,17.9 449.9,9.43 606.46,3.55z"/>
   <path class="fil1" d="M11925.82 1286.78l0.59 -204.31c113.9,0.62 224.85,0.13 335.67,0.12 84.42,-0.01 232.91,-21.98 235.12,99.67 2.24,123.25 -128.66,104.57 -235.12,104.56 -112.07,-0 -224.22,0.41 -336.27,-0.05zm-145.81 342.63c-0.28,16.96 122.94,9.24 145.81,8.11l-0.09 -222.83c609.63,-4.85 555.92,-33.02 553.61,221.08l150.69 2.53c-0.66,-38.94 0.17,-75.69 -0.3,-112.41 -0.49,-38.17 -12.04,-71.46 -12.4,-99.82 -21.29,-18.75 -20.7,-29.98 -50.89,-49.27 -21.25,-13.58 -39.67,-19.57 -55.4,-30.48 186.61,-46.78 189.15,-334.46 -48.72,-380.56 -80.9,-15.68 -568.9,-10.05 -682.41,-7.99l0.11 671.64z"/>
   <path class="fil1" d="M5160.63 1577.87l-0.18 59.5 144.72 1.43 0.5 -535.89c87.31,2.87 123.23,78.75 163.5,130.76 47.47,61.31 85.66,110.79 131.1,169.74 178.72,231.81 203.17,230.65 459.11,235.86l-0.23 -678.13 -144.29 -3.77 0.01 533.88c-82.46,2.87 -125.82,-73.61 -165.02,-125.27 -239.83,-316.05 -238.86,-425.17 -589.43,-405.85l0.21 617.75z"/>
   <path class="fil1" d="M8880.79 1642.44l142.26 -3.78 -0.4 -533.05c72.73,-7.23 125.93,73.58 175.13,139.84 65.28,87.92 215.47,290.5 298.37,346.6 81.48,55.15 173.71,46.25 282.5,46.69l-0.15 -676.29c-42.97,-9.23 -100.17,-10.39 -143.69,-0.64l-0.03 530.8c-53.04,-1.92 -80.45,-19.04 -104.15,-46.47 -58.17,-67.3 -133.51,-185.52 -194.3,-261.68 -157.76,-197.66 -163.3,-227.83 -455.53,-226.97l0 684.95z"/>
   <path class="fil1" d="M1375.57 1079.17l26.01 121.97c26.3,22.36 5.6,-9.58 25.88,24.07l49.18 -27.84c49.94,-35.63 26.82,-80.91 80.36,-118.2 59.04,-76.89 352.41,-716.04 391.71,-741.43 9.15,-73.51 17.92,-33.73 -15.76,-107.23 -8.16,-17.8 -15.39,-39 -23.18,-54.29 -17.15,-33.67 -13.38,-27.86 -40.41,-35.09 -21.5,27.36 -212.37,108.7 -356.87,359.62 -50.3,87.33 -65.05,154.99 -104.16,257.57 -27.51,72.16 -26.22,234.75 -32.77,320.83z"/>
   <path class="fil1" d="M13396.93 1342.97l-359.82 0.26c8.05,-31.47 54.07,-113.43 71.82,-148.36 25.02,-49.23 43.37,-118.86 107.67,-119.08 62.82,-0.22 83.84,69.17 109.03,117.75 19.01,36.66 63.67,110.89 71.3,149.43zm-597.21 136.62c-3.52,29.26 -56.9,131.69 -71.76,157.57l154.99 1.74 85.74 -170.14 495.69 0.77c18.87,19.77 70.98,128.69 88.81,167.52l127.87 1.76c34.66,-6.43 15.26,11.5 28.56,-16.08 -32.9,-29.25 -75.09,-134.64 -96.31,-175.24 -28.38,-54.3 -60.5,-115.62 -91.28,-174.76 -55.29,-106.22 -108.74,-268.44 -214.91,-309.95 -68.02,-26.59 -170.19,-17.47 -219.78,21.68 -99.74,78.77 -224.04,443.12 -287.62,495.13z"/>
   <path class="fil1" d="M6399.8 1343.45c6.57,-27.14 55.04,-116.64 71.66,-147.71 25.93,-48.46 42.92,-118.8 106.76,-119.94 65.37,-1.17 84.17,67.33 110.08,116.56 15.66,29.75 64.93,121.52 70.89,150.83l-359.39 0.26zm-308.99 292.33l155.1 3.29 84.53 -170.45 495.79 1.13c36.73,47.4 62.63,131.35 95.92,167.76l147.99 1.32 -297.16 -582.59c-37.55,-60.68 -89.44,-109.17 -194.84,-108.24 -183.93,1.62 -223.74,174.45 -287.52,299.54l-199.8 388.24z"/>
   <path class="fil1" d="M11655.57 958.26l-147.36 2.51c0,441.09 67.55,551.98 -286.63,548.39 -141.24,-1.43 -249.84,-7.73 -267.26,-145.97 -14.21,-112.77 -4.18,-286.1 -4.18,-405.79l-145.52 0.43c28.94,155.02 -29.12,377.26 31.79,523.65 56.27,135.22 217.26,166.13 393.8,166.22 596.5,0.33 367.53,-401.35 425.37,-689.44z"/>
   <path class="fil1" d="M7866.33 959.65l-153.08 -2.25 -222.1 432.03c-25.35,50.4 -41.94,120.35 -104.62,121.5 -65.33,1.19 -82.15,-63.12 -106.03,-110.82 -24.09,-48.1 -52.15,-102.12 -75.26,-148.09 -33.12,-65.87 -119.7,-254.64 -154.1,-294.07l-149.58 -0.57c17.4,53.23 165.85,335.76 194.69,394.71 72.75,148.67 108.08,296.95 290.22,295.75 180.33,-1.2 221.47,-166.21 287.74,-297.93 62.16,-123.56 143.13,-273.54 192.13,-390.25z"/>
   <polygon class="fil1" points="9880.62,1086.77 10217.5,1087.74 10217.79,1636.14 10362.57,1638.89 10362.67,1088.52 10699.9,1088.08 10700.38,957.63 9884.94,957.43 "/>
   <path class="fil1" d="M3400.02 1494.01l-29.19 15.06c1.36,2.61 4,5.07 5.73,6.71 1.68,1.58 3.8,4.41 5.88,6.19 27.23,23.37 44.31,8.33 59.11,61.15 -1.31,-1.36 -20.16,-19.32 -22.66,-21.21l-43.7 -26.91 -81.42 34.25c26.27,25.32 28.21,14.2 49.21,42.67 79.32,49.47 448.59,64.09 574.63,-46.07 152.36,-133.17 63.72,-393.26 94.72,-608.19l-145.77 -0.3c0,443.11 48.56,534.3 -220.37,550.03 -88.42,5.17 -184.64,-16.44 -246.15,-13.4z"/>
   <path class="fil0" d="M2374.52 1541l5.67 5.73c41.23,-18.03 128.02,-127.55 178.76,-170.27 91.83,-77.3 41.02,-95.93 -64.48,-203.4 -47.05,-47.93 -155.15,-119.74 -64.33,-209.01 199.31,-195.89 212.61,-182.76 101.91,-284.42 -21.08,-19.36 -68.43,-64.14 -76.77,-90.93 -24.92,-14.25 -23.98,-16.28 -43.26,-39.24 -16.39,-19.53 -17.03,-27.72 -38.52,-29.3l-17.93 -6.43c32.88,46.59 16.18,173.55 16.18,247.25 0.01,85.99 0.17,171.98 -0.06,257.97 -0.36,134.87 -14.84,403.05 2.82,522.06z"/>
   <path class="fil1" d="M3310.78 1624.88c25.29,-23.05 -4.58,-5.47 32.19,-12.94 -20.99,-28.47 -22.93,-17.35 -49.21,-42.67l81.42 -34.25 43.7 26.91c2.5,1.89 21.35,19.85 22.66,21.21 -14.8,-52.82 -31.88,-37.78 -59.11,-61.15 -2.08,-1.78 -4.2,-4.61 -5.88,-6.19 -1.74,-1.64 -4.38,-4.1 -5.73,-6.71l29.19 -15.06 -2.21 -18.61c-144.64,-20.25 -70.05,-315.39 -94.39,-516.81l-137.4 -0.92c-8.54,115.24 -6.17,290.81 -1.66,406.14 3.08,78.78 41.64,163.11 97.97,210.8 11.54,9.77 19.65,11.92 30.15,20.55 27,22.17 16.07,-12.33 18.31,29.72z"/>
   <path class="fil0" d="M2728.86 2402.91c124.11,-54.91 164.28,122.15 82.31,163.14 -119.9,59.95 -185.62,-117.44 -82.31,-163.14zm-136.62 112.24c4.87,45.52 24.92,85.9 58.91,109.19 36.49,25.01 88.52,35.2 143.9,30.06 104.76,-9.71 156.12,-80.46 144.16,-198.88 -10.79,-106.86 -90.24,-151.68 -205.13,-139.92 -102.79,10.52 -154.23,83.56 -141.84,199.54z"/>
   <path class="fil2" d="M2206.48 2650.55l73.78 1.13 -0.2 -333.78 -86.92 0.37 -1.85 180.29c-43.14,-45.96 -97.75,-128.82 -133.05,-180.64l-71.85 0.02 -4.15 332.83 88.24 -0.39 1.71 -177.43 107.58 132.87c4.53,5.8 14.69,18.6 18.08,24.32 10.23,17.24 5.32,4 8.62,20.42z"/>
   <path class="fil2" d="M3510.34 2351.77c-70.15,-56.53 -243.85,-59.98 -265.81,37.14 -15.59,68.95 15.03,102.26 64.54,119.06 84.51,28.69 116.6,-0.61 122.12,60.65 -71.6,26.64 -111.49,-0.5 -175.44,-18.92l-26.3 70.75c83.01,28.12 255.13,76.05 292.36,-32.13 57.37,-166.7 -197.24,-116.58 -193.02,-176.36 27.46,-55.57 108.73,-7.61 155.79,0.69l25.75 -60.89z"/>
   <path class="fil2" d="M1477.6 2517.56c6.61,-30.25 19.15,-81.9 37,-106.06l36.69 105.87 -73.69 0.19zm-27.1 74.82l131.29 0.86 26.21 58.54 82.9 -0.75 -124.97 -333.36 -105.04 0.39 -113.48 334.3 86.18 -1.65 16.92 -58.32z"/>
   <path class="fil1" d="M1410.78 1361.98l14.97 -16.19c41.22,-71.77 107.49,-182.01 131.26,-266.62 -53.53,37.29 -30.42,82.57 -80.36,118.2l-49.18 27.84c-20.28,-33.65 0.41,-1.72 -25.88,-24.07l-26.01 -121.97c-1.85,62.01 7.45,93.43 15.25,148.24 9.35,65.72 23.32,60.33 19.96,134.57z"/>
   <path class="fil3" d="M1870.28 109.16l-0.91 31.98c27.02,7.22 23.26,1.41 40.41,35.09 7.79,15.29 15.02,36.48 23.18,54.29 33.68,73.5 24.92,33.72 15.76,107.23 40.34,-13.49 32.66,-27.53 20.07,-75.47 1.57,1.45 3.75,2.2 4.33,4.74 3.85,16.65 -10.41,19.36 21.18,3.82 0.52,-42.75 -11.59,-60.34 3.49,-100.35 -24.48,-1.94 -28.59,-10.12 -42.99,-28.59l31.52 -50.55 -96.1 40.29c-15.68,-25.58 -6.16,-10.82 -19.93,-22.47z"/>
   <path class="fil4" d="M2041.81 2284.19c66.57,9.44 32.71,-4.29 72.13,-5.09 35.6,-0.72 40.22,11.29 89.68,3.61 14.48,-21.36 8.97,-15.06 19.27,-42.71l-22.3 -19.83c-74.43,27.85 -23.54,15.4 -97.53,6.05 -50.36,-6.36 -52.18,18.44 -61.25,57.98z"/>
   <path class="fil5" d="M2136.44 1789.08l23.59 -3.79c48.68,-70 188.97,-175.93 220.17,-238.56l-5.67 -5.73c-44.66,30.07 -81.98,82.36 -121.71,122.69 -21.47,21.79 -38,41.45 -59.01,61.45 -32.69,31.12 -33.16,20.88 -57.36,63.94z"/>
   <path class="fil5" d="M2355.58 513.72l17.93 6.43c-25.19,-42.08 -77.28,-93.92 -110.73,-130.25 -19.12,-20.77 -37.53,-32.63 -57.03,-54.58 -19.53,-21.99 -36.13,-40.91 -53.15,-61.99l-23.97 0.27c13.03,21.67 41.06,41.05 59.27,62.14l167.68 177.98z"/>
   <g>
    <path class="fil1" d="M11075.14 2032.56c118.7,-54.38 155.22,124.12 72.83,160.03 -115.26,50.24 -167.87,-116.49 -72.83,-160.03zm180.91 278.32l46.96 1.23c7.19,-80.14 -27.63,3.4 -108.6,-89.32 29.86,-47.83 70.45,-94.33 31.4,-176.3 -23.97,-50.31 -78.81,-71.3 -153.74,-60.6 -66.41,23.26 -109.95,73.09 -87.98,164.43 18.7,77.72 79.17,91.72 171.19,88.16 20.29,34.47 49.62,58.11 100.77,72.41z"/>
    <path class="fil1" d="M10227.09 2151.7c-26.73,-37.86 -7.4,-120.64 -28.75,-162.34 -74.31,-3.41 -55.36,93.66 -116.13,142.9l-70.7 -142.94 -42.48 -1.45 -19.07 249.48 38.03 -2.12 18.15 -162.31c17.21,28.15 51.37,107.75 80.4,127.07 30.85,-14.25 31.83,-37.84 46.7,-68.81 9.97,-20.77 25.76,-42.39 34.81,-58.88l23.33 165.04 36.72 -2.44 -1.02 -83.22z"/>
    <path class="fil1" d="M12290.88 1991.28l-50.69 11.44c-17.55,24.09 -45.6,99.68 -70.32,130.71l-79.73 -144.74 -39.52 -0.95 -19.16 249.5 38.37 -1.74 20.27 -158.29c28.49,32.84 46.64,100.93 77.39,122.64 29.24,-14.23 23.65,-20.71 47.07,-68.1 12.34,-24.96 19.64,-41.22 36.17,-61.11 3.19,38.99 8.3,71.97 11.25,109.53 4.1,52.25 -0.89,59.65 47.39,55.21 2,-79.75 -30.28,-165.17 -18.5,-244.12z"/>
    <path class="fil1" d="M9198.66 2025.17c75.06,-0.67 130.82,7.91 131.02,85.83 0.21,82.63 -54.2,86.87 -131.68,85.88l0.67 -171.71zm-45.23 210.25c112.96,9.87 223.51,1.07 224.68,-124.5 1.13,-121.17 -109.67,-135.96 -226.66,-123l1.98 247.5z"/>
    <path class="fil1" d="M9549.78 2029.78c119.81,-47.42 157.73,132.38 68.74,164.2 -126.29,45.17 -154.08,-130.43 -68.74,-164.2zm158.66 124.21c53.31,-182.66 -202.68,-230.12 -247.11,-91.6 -61.11,190.52 203.73,240.21 247.11,91.6z"/>
    <path class="fil1" d="M12774.54 1987.62l-48.45 -0.4 -0.39 157.72c-53.02,-37.06 -111.31,-150.89 -171.22,-159.68l5.06 250.39 43.84 0.28 4.18 -156.54 75.57 83.73c29.31,30.81 49.89,70.52 87.75,76.88l3.65 -252.4z"/>
    <path class="fil1" d="M8835.81 2233.33l42.55 1.42 0.8 -153.88c52.19,25.27 110.46,150.79 166.88,158.26l4.44 -251.61 -48.28 0.1 -0.16 158.89c-38.05,-25.7 -124.83,-159.07 -168.06,-160.58l1.84 247.4z"/>
    <polygon class="fil1" points="7781.99,1990.05 7747.63,1986.88 7732.72,1990.22 7728.8,2091.14 7610.9,2091.37 7609.86,1987.15 7558.51,1989.93 7563.89,2235.81 7608.61,2237.43 7612.68,2130.95 7730.39,2130.88 7734.35,2237.02 7777.65,2234.72 "/>
    <path class="fil1" d="M13167.39 2026.54c45.05,-7.41 80.46,-4.05 79.54,41.15 -0.87,42.83 -36.65,48.04 -79.27,40.85l-0.27 -82zm-45.76 211.8l45.72 -2.07 1.51 -87.37c76.04,-5.32 28.49,92.62 144.64,87.26 -3.63,-15.8 -49.36,-65.87 -67.49,-92.01 20.95,-20.31 30.12,-15.92 41.28,-48.92 35.78,-105.89 -75.08,-116.43 -162.01,-109.45l-3.64 252.56z"/>
    <path class="fil1" d="M11390.6 2243.79l63.23 -4.23c56.13,-11.45 79.53,-31.92 85.47,-94.48l0.82 -129.17c-5.09,-26.8 3.7,-17.51 -17.54,-28.83 -81.8,-14.28 31.71,199.91 -80.15,214.35 -104.23,13.45 -59.37,-138.26 -72.51,-213.27l-38.93 0.45c-9.13,36.49 -6.9,115.58 -3.61,155.63 6.36,77.45 30.71,58.39 63.22,99.56z"/>
    <path class="fil1" d="M13633.45 2058.56l35.85 92.72 -74.5 -1.83 38.65 -90.89zm-114.07 184.36l39.02 -5.76 27.92 -56.1 97.47 -0.29 25.63 55.32 40.26 6.69c-2.5,-43.95 -34.99,-98.86 -52,-139.98 -24.94,-60.27 -35.32,-110.28 -68.35,-118.6 -25.17,17.28 -47.15,87.97 -62.3,124.65 -16.03,38.79 -43.96,94.72 -47.63,134.06z"/>
    <path class="fil1" d="M7938.99 2150.6c0.52,-25.53 16.09,-70.93 35.85,-86.26l29.93 86.11 -65.77 0.15zm152.42 66.35c-14.93,-12.79 -92.95,-199.36 -105.62,-233.69l-28.67 2.12 -100.92 250.4 42.79 0.09 21.21 -55 103.44 0.01c8.45,20.1 16.05,65.46 48.86,55.47 26.78,-8.16 11.42,12.87 18.91,-19.39z"/>
    <path class="fil1" d="M10379.02 2151.19c0.66,-32.29 16.98,-69.8 34.73,-91.96l32.35 91.57 -67.08 0.39zm-72.82 34.75l-9.63 51.11 40.75 -1.21 23.64 -54.92 102.52 -0.39 27.21 55.71 45.74 0.68c-79.66,-138.95 -104.05,-340.88 -156.35,-210.48 -8.06,20.1 -13.42,33.84 -22.13,54.7 -14.61,34.96 -23.83,80.81 -51.74,104.8z"/>
    <path class="fil1" d="M11644.8 2243.01c45.13,-13.14 110.94,6.3 152.09,-11.62l-0.55 -25.8c-25.65,-13.01 -74.98,-5.72 -109.05,-7.92l0 -69.7c113.97,-6.06 79.91,10.41 97.14,-16.97 -14.72,-31.47 10.59,-17.9 -96.07,-20.26l-1.17 -65.98 100.58 -0.26 5.77 -36.38 -152.79 0.1 4.06 254.79z"/>
    <path class="fil1" d="M8593.24 2236.54l147.08 -2.92 1.23 -33.54 -106.93 -2.7 0 -69.35c18.51,-1.12 44.55,0.9 59.68,-0.53 50.57,-4.79 22.57,6.86 35.78,-16.5 -11.3,-26.91 10.15,-17.97 -44.27,-20.79 -13.26,-0.69 -34.38,1.04 -50.47,0.71l-0.95 -66.19 100.62 -0.75 5.86 -36.44 -152.06 0.21 4.44 248.79z"/>
    <path class="fil1" d="M8155.69 2165.64c16.03,33.09 36.13,57.9 77.73,69.39 20.44,5.65 50.24,7.53 73.12,4.87 37.34,-4.35 36.06,-5.13 40.92,-34.26l-3.2 -16.46c-80.33,18.56 -151.25,7.59 -150.33,-78.22 0.99,-91.83 76.98,-89.42 153.98,-78.14 -2.06,-48.48 -10.58,-49 -58.5,-50.24 -113.94,-2.95 -164.12,82.17 -133.72,183.06z"/>
    <path class="fil1" d="M10593 2229.29c63.84,6.65 153.58,28.69 157.46,-58.31 4.69,-105.21 -103.3,-51.59 -106.01,-140.78 45.7,-18.87 52.77,-9.18 99.65,-0.69 2.32,-53.43 -14.51,-45.68 -64.17,-47.36 -62.65,2.29 -106.47,42.2 -75.07,100.12 31.69,58.45 105.19,26.53 97.57,103.83 -38.26,28.18 -71.36,17.16 -107.54,-4.74l-1.88 47.93z"/>
    <path class="fil1" d="M13021.22 2199.57l-97.78 -0.03 0 -72.78c116.62,-1.49 84.11,7.14 95.99,-15.76 -9.75,-26.24 11.11,-18.15 -42.65,-20.62 -12.79,-0.59 -36.24,1.34 -51.78,1.55l-2.23 -67.8 107.61 -1.17 -11.58 -35.37 -136.65 0.84 0.76 245.68 145.17 -1.31 -6.84 -33.24z"/>
    <path class="fil1" d="M8431.68 2234.49l49.65 1.83 -0.17 -251.26 -44.42 4.53c0,71.86 8.48,178.14 -5.06,244.9z"/>
    <path class="fil1" d="M13399.38 2242.87l36.51 -0.57c4.53,-46.29 2.54,-93.31 2.63,-139.91 0.04,-21.79 1.75,-48.97 1.02,-69.75 -1.54,-44.27 6.53,-30.95 -16.6,-45.1 -38.6,5.22 -27.44,-11.93 -29.38,44.8l5.82 210.53z"/>
    <path class="fil1" d="M12448.18 2236.81c5.69,-43.92 2.61,-89.89 2.7,-134.41 0.16,-83.88 15.29,-121.94 -24.25,-114.72 -27.88,5.09 -19.52,15.08 -19.48,53.53l3.99 195.9 37.03 -0.3z"/>
    <path class="fil1" d="M10397.87 1927.63c-1.52,1.89 -4.18,2.01 -4.99,5.31 -4.03,16.28 -11.85,-0.98 -23.82,31.88 16.01,8.06 98.35,-0.82 86.23,-45.9 -7.16,-11.53 -0.05,-0.83 -24.73,-5.43 -11.95,17.37 -14.16,13.57 -32.68,14.14z"/>
    <path class="fil1" d="M13375.12 1969.07c22.45,2.37 69.54,-14.29 87.82,-30.05l-7.12 -26.8c-47.03,12.67 -82.12,27.14 -80.7,56.85z"/>
   </g>
  </g>
 </g>
</svg>
