<?xml version="1.0" encoding="UTF-8" standalone="no"?>
<!-- Creator: CorelDRAW 2020 (64-Bit) -->

<svg
   xml:space="preserve"
   width="23.826427mm"
   height="20.539402mm"
   version="1.1"
   style="clip-rule:evenodd;fill-rule:evenodd;image-rendering:optimizeQuality;shape-rendering:geometricPrecision;text-rendering:geometricPrecision"
   viewBox="0 0 211.37 182.20888"
   id="svg47"
   xmlns="http://www.w3.org/2000/svg"
   xmlns:svg="http://www.w3.org/2000/svg">
 <defs
   id="defs1"><style
     type="text/css"
     id="style1">
   <![CDATA[
    .str21 {stroke:black;stroke-width:0.24;stroke-miterlimit:22.9256}
    .str17 {stroke:black;stroke-width:0.24;stroke-miterlimit:22.9256}
    .str23 {stroke:black;stroke-width:0.24;stroke-miterlimit:22.9256}
    .str19 {stroke:black;stroke-width:0.24;stroke-miterlimit:22.9256}
    .str22 {stroke:black;stroke-width:0.24;stroke-miterlimit:22.9256}
    .str18 {stroke:black;stroke-width:0.24;stroke-miterlimit:22.9256}
    .str20 {stroke:black;stroke-width:0.24;stroke-miterlimit:22.9256}
    .str16 {stroke:black;stroke-width:0.24;stroke-miterlimit:22.9256}
    .str12 {stroke:#1F3C3A;stroke-width:0.56;stroke-miterlimit:22.9256}
    .str10 {stroke:#1F3C3A;stroke-width:0.56;stroke-miterlimit:22.9256}
    .str11 {stroke:#1F3C3A;stroke-width:0.56;stroke-miterlimit:22.9256}
    .str5 {stroke:#1F3C3A;stroke-width:0.56;stroke-miterlimit:22.9256}
    .str13 {stroke:#1F3C3A;stroke-width:0.56;stroke-miterlimit:22.9256}
    .str9 {stroke:#1F3C3A;stroke-width:0.56;stroke-miterlimit:22.9256}
    .str1 {stroke:#1F3C3A;stroke-width:0.56;stroke-miterlimit:22.9256}
    .str4 {stroke:#1F3C3A;stroke-width:0.56;stroke-miterlimit:22.9256}
    .str3 {stroke:#1F3C3A;stroke-width:0.56;stroke-miterlimit:22.9256}
    .str7 {stroke:#1F3C3A;stroke-width:0.56;stroke-miterlimit:22.9256}
    .str15 {stroke:#1F3C3A;stroke-width:0.56;stroke-miterlimit:22.9256}
    .str14 {stroke:#1F3C3A;stroke-width:0.56;stroke-miterlimit:22.9256}
    .str8 {stroke:#1F3C3A;stroke-width:0.56;stroke-miterlimit:22.9256}
    .str6 {stroke:#1F3C3A;stroke-width:0.56;stroke-miterlimit:22.9256}
    .str2 {stroke:#1F3C3A;stroke-width:0.56;stroke-miterlimit:22.9256}
    .str0 {stroke:#1F3C3A;stroke-width:0.64;stroke-miterlimit:22.9256}
    .fil3 {fill:none}
    .fil4 {fill:#0F3A64}
    .fil5 {fill:#32F4FD}
    .fil0 {fill:gray}
    .fil1 {fill:#CCCCCC}
    .fil2 {fill:#1F3C3A;fill-rule:nonzero}
   ]]>
  </style></defs>
 <g
   id="Capa_x0020_1"
   transform="translate(0,-5.5897992e-4)">
  <metadata
   id="CorelCorpID_0Corel-Layer" />
  <g
   id="_2873866010672">
   <path
   class="fil0"
   d="m 37.14,0 h 158.3 c 8.76,0 15.93,7.17 15.93,15.93 v 134.36 c 0,8.76 -7.17,15.93 -15.93,15.93 H 37.14 c -8.76,0 -15.93,-7.17 -15.93,-15.93 V 15.93 C 21.21,7.17 28.38,0 37.14,0 Z"
   id="path1" />
   <polygon
   class="fil0"
   points="3.66,21.79 24.49,6.13 28.5,57.74 17,57.74 "
   id="polygon1" />
   <polygon
   class="fil0"
   points="205.58,162.55 184.75,178.21 180.74,126.6 192.24,126.6 "
   id="polygon2" />
   <path
   class="fil1"
   d="m 15.93,15.99 h 158.3 c 8.76,0 15.93,7.17 15.93,15.93 v 134.36 c 0,8.76 -7.17,15.93 -15.93,15.93 H 15.93 C 7.17,182.21 0,175.04 0,166.28 V 31.92 C 0,23.16 7.17,15.99 15.93,15.99 Z"
   id="path2" />
   <path
   class="fil2"
   d="m 134.69,54.82 v -7.24 h 2.24 c 0.43,0 0.81,0.09 1.13,0.26 0.32,0.17 0.58,0.42 0.75,0.73 0.18,0.31 0.27,0.68 0.27,1.09 0,0.49 -0.13,0.91 -0.38,1.26 -0.25,0.35 -0.6,0.59 -1.04,0.72 l 1.52,3.17 h -1.05 l -1.39,-3.07 h -1.16 v 3.07 h -0.89 z m 0.89,-3.88 h 1.35 c 0.37,0 0.67,-0.12 0.89,-0.35 0.23,-0.24 0.34,-0.54 0.34,-0.93 0,-0.39 -0.11,-0.7 -0.34,-0.93 -0.22,-0.23 -0.52,-0.35 -0.89,-0.35 h -1.35 z"
   id="path3" />
   <polygon
   id="1"
   class="fil2"
   points="144.88,47.58 144.88,48.39 141.6,48.39 141.6,50.63 144.53,50.63 144.53,51.44 141.6,51.44 141.6,54.01 144.88,54.01 144.88,54.82 140.72,54.82 140.72,47.58 " />
   <path
   id="2"
   class="fil2"
   d="m 146.43,54.82 v -7.24 h 1.17 l 0.75,2.34 c 0.07,0.21 0.14,0.42 0.2,0.63 0.06,0.21 0.1,0.37 0.13,0.48 0.03,-0.11 0.08,-0.27 0.13,-0.48 0.05,-0.21 0.11,-0.42 0.18,-0.64 l 0.71,-2.33 h 1.17 v 7.24 H 150 v -2.63 c 0,-0.29 0.01,-0.62 0.03,-0.99 0.02,-0.37 0.05,-0.75 0.08,-1.13 0.03,-0.39 0.07,-0.76 0.1,-1.11 0.04,-0.35 0.07,-0.66 0.09,-0.93 l -1.17,3.62 h -0.94 l -1.18,-3.62 c 0.03,0.26 0.07,0.56 0.1,0.9 0.03,0.34 0.06,0.7 0.09,1.08 0.03,0.38 0.05,0.76 0.07,1.13 0.02,0.38 0.03,0.73 0.03,1.05 v 2.63 z" />
   <path
   id="3"
   class="fil2"
   d="m 154.6,54.92 c -0.44,0 -0.81,-0.08 -1.12,-0.25 -0.31,-0.17 -0.56,-0.4 -0.72,-0.72 -0.17,-0.31 -0.25,-0.69 -0.25,-1.12 v -3.27 c 0,-0.44 0.08,-0.81 0.25,-1.12 0.17,-0.31 0.41,-0.55 0.72,-0.71 0.31,-0.17 0.69,-0.25 1.12,-0.25 0.44,0 0.81,0.08 1.13,0.25 0.31,0.17 0.56,0.4 0.72,0.71 0.17,0.31 0.25,0.68 0.25,1.11 v 3.28 c 0,0.43 -0.08,0.8 -0.25,1.12 -0.17,0.31 -0.41,0.55 -0.72,0.72 -0.31,0.17 -0.69,0.25 -1.13,0.25 z m 0,-0.8 c 0.39,0 0.69,-0.11 0.9,-0.33 0.21,-0.22 0.31,-0.54 0.31,-0.95 v -3.27 c 0,-0.41 -0.1,-0.73 -0.31,-0.95 -0.21,-0.22 -0.51,-0.33 -0.9,-0.33 -0.38,0 -0.68,0.11 -0.89,0.33 -0.21,0.22 -0.32,0.54 -0.32,0.95 v 3.27 c 0,0.41 0.11,0.72 0.32,0.95 0.21,0.22 0.51,0.33 0.89,0.33 z" />
   <polygon
   id="4"
   class="fil2"
   points="158.12,48.38 158.12,47.57 162.97,47.57 162.97,48.38 160.99,48.38 160.99,54.82 160.1,54.82 160.1,48.38 " />
   <polygon
   id="5"
   class="fil2"
   points="168.68,47.58 168.68,48.39 165.39,48.39 165.39,50.63 168.33,50.63 168.33,51.44 165.39,51.44 165.39,54.01 168.68,54.01 168.68,54.82 164.51,54.82 164.51,47.58 " />
   <path
   id="6"
   class="fil2"
   d="m 154.64,66.04 c -0.46,0 -0.85,-0.09 -1.19,-0.26 -0.34,-0.17 -0.6,-0.42 -0.79,-0.74 -0.18,-0.32 -0.28,-0.7 -0.28,-1.12 v -3.19 c 0,-0.44 0.09,-0.81 0.28,-1.13 0.19,-0.32 0.45,-0.56 0.79,-0.73 0.34,-0.17 0.74,-0.26 1.19,-0.26 0.46,0 0.86,0.09 1.19,0.26 0.33,0.18 0.59,0.42 0.78,0.73 0.19,0.31 0.28,0.69 0.28,1.13 h -1.15 c 0,-0.36 -0.1,-0.63 -0.29,-0.82 -0.19,-0.19 -0.46,-0.28 -0.81,-0.28 -0.35,0 -0.62,0.09 -0.82,0.28 -0.2,0.19 -0.29,0.46 -0.29,0.82 v 3.19 c 0,0.35 0.1,0.62 0.29,0.82 0.2,0.2 0.47,0.29 0.82,0.29 0.35,0 0.62,-0.1 0.81,-0.29 0.19,-0.2 0.29,-0.47 0.29,-0.83 v -0.76 h -1.3 v -1.01 h 2.45 v 1.78 c 0,0.43 -0.09,0.8 -0.28,1.12 -0.19,0.32 -0.44,0.56 -0.78,0.74 -0.33,0.17 -0.73,0.26 -1.19,0.26 z" />
   <path
   id="7"
   class="fil2"
   d="m 157.96,65.94 1.83,-7.24 h 1.51 l 1.83,7.24 h -1.17 l -0.43,-1.79 h -1.98 l -0.42,1.79 h -1.18 z m 1.8,-2.75 h 1.56 l -0.46,-2.01 c -0.08,-0.34 -0.15,-0.65 -0.2,-0.92 -0.06,-0.27 -0.09,-0.46 -0.11,-0.57 -0.02,0.11 -0.06,0.29 -0.11,0.56 -0.05,0.27 -0.12,0.57 -0.2,0.92 z" />
   <path
   id="8"
   class="fil2"
   d="m 166.51,66.04 c -0.49,0 -0.91,-0.08 -1.27,-0.25 -0.36,-0.17 -0.63,-0.4 -0.83,-0.7 -0.2,-0.3 -0.29,-0.66 -0.29,-1.07 h 1.15 c 0,0.31 0.11,0.56 0.34,0.73 0.23,0.18 0.53,0.27 0.92,0.27 0.36,0 0.65,-0.09 0.86,-0.26 0.21,-0.17 0.32,-0.42 0.32,-0.73 0,-0.26 -0.07,-0.48 -0.22,-0.67 -0.15,-0.19 -0.35,-0.31 -0.62,-0.38 L 166,62.73 c -0.55,-0.15 -0.97,-0.42 -1.27,-0.79 -0.3,-0.37 -0.45,-0.82 -0.45,-1.33 0,-0.41 0.09,-0.76 0.27,-1.06 0.18,-0.3 0.44,-0.53 0.77,-0.7 0.33,-0.17 0.73,-0.25 1.18,-0.25 0.69,0 1.23,0.18 1.64,0.54 0.4,0.36 0.61,0.84 0.61,1.44 h -1.16 c 0,-0.3 -0.1,-0.53 -0.29,-0.7 -0.19,-0.17 -0.46,-0.26 -0.81,-0.26 -0.34,0 -0.6,0.08 -0.79,0.24 -0.19,0.16 -0.28,0.39 -0.28,0.67 0,0.26 0.07,0.49 0.21,0.67 0.14,0.19 0.35,0.32 0.61,0.4 l 0.9,0.26 c 0.55,0.15 0.97,0.4 1.26,0.77 0.29,0.37 0.44,0.82 0.44,1.36 0,0.41 -0.1,0.77 -0.29,1.08 -0.2,0.31 -0.47,0.55 -0.82,0.72 -0.35,0.17 -0.76,0.26 -1.24,0.26 z" />
   <path
   id="9"
   class="fil2"
   d="m 116.84,77.07 v -7.24 h 1.87 c 0.47,0 0.87,0.09 1.21,0.27 0.34,0.18 0.61,0.43 0.79,0.75 0.19,0.32 0.28,0.71 0.28,1.15 v 2.88 c 0,0.44 -0.09,0.83 -0.28,1.16 -0.19,0.33 -0.45,0.58 -0.79,0.76 -0.34,0.18 -0.75,0.27 -1.21,0.27 z m 0.89,-0.79 h 0.98 c 0.44,0 0.78,-0.12 1.03,-0.37 0.25,-0.24 0.37,-0.58 0.37,-1.02 v -2.88 c 0,-0.43 -0.12,-0.77 -0.37,-1.01 -0.25,-0.24 -0.59,-0.37 -1.03,-0.37 h -0.98 z" />
   <polygon
   id="10"
   class="fil2"
   points="127.03,69.83 127.03,70.64 123.75,70.64 123.75,72.89 126.69,72.89 126.69,73.69 123.75,73.69 123.75,76.26 127.03,76.26 127.03,77.07 122.87,77.07 122.87,69.83 " />
   <polygon
   id="11"
   class="fil2"
   points="128.37,70.63 128.37,69.82 133.23,69.82 133.23,70.63 131.25,70.63 131.25,77.07 130.35,77.07 130.35,70.63 " />
   <polygon
   id="12"
   class="fil2"
   points="138.93,69.83 138.93,70.64 135.65,70.64 135.65,72.89 138.58,72.89 138.58,73.69 135.65,73.69 135.65,76.26 138.93,76.26 138.93,77.07 134.77,77.07 134.77,69.83 " />
   <path
   id="13"
   class="fil2"
   d="m 142.74,77.17 c -0.44,0 -0.82,-0.08 -1.14,-0.25 -0.32,-0.17 -0.57,-0.4 -0.74,-0.72 -0.18,-0.31 -0.26,-0.69 -0.26,-1.12 v -3.27 c 0,-0.44 0.09,-0.81 0.26,-1.12 0.17,-0.31 0.42,-0.55 0.74,-0.71 0.32,-0.17 0.7,-0.25 1.14,-0.25 0.44,0 0.81,0.08 1.13,0.25 0.32,0.17 0.56,0.41 0.73,0.72 0.17,0.31 0.26,0.68 0.26,1.11 h -0.89 c 0,-0.41 -0.11,-0.73 -0.32,-0.95 -0.22,-0.22 -0.52,-0.33 -0.91,-0.33 -0.39,0 -0.7,0.11 -0.92,0.33 -0.22,0.22 -0.33,0.53 -0.33,0.94 v 3.28 c 0,0.41 0.11,0.72 0.33,0.95 0.22,0.22 0.53,0.33 0.92,0.33 0.39,0 0.69,-0.11 0.91,-0.33 0.21,-0.22 0.32,-0.54 0.32,-0.95 h 0.89 c 0,0.42 -0.09,0.79 -0.26,1.11 -0.17,0.31 -0.42,0.56 -0.73,0.72 -0.32,0.17 -0.69,0.25 -1.13,0.25 z" />
   <polygon
   id="14"
   class="fil2"
   points="146.22,70.63 146.22,69.82 151.08,69.82 151.08,70.63 149.09,70.63 149.09,77.07 148.2,77.07 148.2,70.63 " />
   <polygon
   id="15"
   class="fil2"
   points="154.14,76.26 154.14,70.64 152.66,70.64 152.66,69.83 156.53,69.83 156.53,70.64 155.05,70.64 155.05,76.26 156.53,76.26 156.53,77.07 152.66,77.07 152.66,76.26 " />
   <path
   id="16"
   class="fil2"
   d="m 160.55,77.17 c -0.44,0 -0.81,-0.08 -1.12,-0.25 -0.31,-0.17 -0.56,-0.4 -0.72,-0.72 -0.17,-0.31 -0.25,-0.69 -0.25,-1.12 v -3.27 c 0,-0.44 0.08,-0.81 0.25,-1.12 0.17,-0.31 0.41,-0.55 0.72,-0.71 0.31,-0.17 0.69,-0.25 1.12,-0.25 0.44,0 0.81,0.08 1.13,0.25 0.31,0.17 0.56,0.4 0.72,0.71 0.17,0.31 0.25,0.68 0.25,1.11 v 3.28 c 0,0.43 -0.08,0.8 -0.25,1.12 -0.17,0.31 -0.41,0.55 -0.72,0.72 -0.31,0.17 -0.69,0.25 -1.13,0.25 z m 0,-0.8 c 0.39,0 0.69,-0.11 0.9,-0.33 0.21,-0.22 0.31,-0.54 0.31,-0.95 v -3.27 c 0,-0.41 -0.1,-0.73 -0.31,-0.95 -0.21,-0.22 -0.51,-0.33 -0.9,-0.33 -0.38,0 -0.68,0.11 -0.89,0.33 -0.21,0.22 -0.32,0.54 -0.32,0.95 v 3.27 c 0,0.41 0.11,0.72 0.32,0.95 0.21,0.22 0.51,0.33 0.89,0.33 z" />
   <path
   id="17"
   class="fil2"
   d="m 164.41,77.07 v -7.24 h 1.19 l 2.21,6.2 c -0.01,-0.17 -0.03,-0.37 -0.05,-0.61 -0.02,-0.24 -0.03,-0.5 -0.04,-0.76 -0.01,-0.27 -0.02,-0.52 -0.02,-0.76 v -4.06 h 0.86 v 7.24 h -1.19 l -2.2,-6.2 c 0.01,0.16 0.03,0.36 0.04,0.6 0.01,0.24 0.02,0.5 0.04,0.76 0.01,0.27 0.01,0.52 0.01,0.77 v 4.07 h -0.86 z" />
   <g
   id="g21">
    <path
   class="fil2"
   d="m 24.09,145.9 -1.22,-11.58 h 1.63 l 0.75,8.2 c 0.01,0.19 0.02,0.41 0.04,0.67 0.02,0.26 0.03,0.52 0.05,0.77 0.02,0.25 0.02,0.48 0.02,0.67 0.02,-0.19 0.04,-0.41 0.06,-0.67 0.02,-0.25 0.05,-0.51 0.08,-0.77 0.03,-0.26 0.06,-0.48 0.08,-0.67 l 0.98,-8.2 h 1.62 l 0.92,8.2 c 0.02,0.19 0.04,0.41 0.07,0.67 0.03,0.26 0.06,0.52 0.09,0.77 0.03,0.25 0.05,0.48 0.06,0.67 0.01,-0.19 0.02,-0.41 0.04,-0.67 0.02,-0.25 0.03,-0.51 0.06,-0.77 0.02,-0.26 0.04,-0.48 0.05,-0.67 l 0.75,-8.2 h 1.6 l -1.28,11.58 h -2.09 l -0.89,-8.26 c -0.02,-0.22 -0.04,-0.46 -0.06,-0.71 -0.02,-0.25 -0.04,-0.51 -0.06,-0.76 -0.02,-0.25 -0.04,-0.47 -0.06,-0.65 -0.01,0.18 -0.03,0.4 -0.05,0.65 -0.02,0.25 -0.04,0.51 -0.06,0.76 -0.02,0.25 -0.05,0.49 -0.08,0.71 l -0.97,8.26 h -2.11 z"
   id="path4" />
    <path
   id="path5"
   class="fil2"
   d="m 32.72,145.9 2.93,-11.58 h 2.41 l 2.93,11.58 h -1.87 l -0.68,-2.87 h -3.17 l -0.67,2.87 h -1.89 z m 2.89,-4.39 h 2.49 l -0.73,-3.22 c -0.13,-0.55 -0.24,-1.04 -0.32,-1.48 -0.09,-0.43 -0.15,-0.74 -0.18,-0.9 -0.03,0.17 -0.09,0.47 -0.17,0.9 -0.08,0.43 -0.19,0.92 -0.32,1.47 l -0.76,3.24 z" />
    <path
   id="path6"
   class="fil2"
   d="m 42.89,145.9 v -11.58 h 3.84 c 0.76,0 1.42,0.15 1.98,0.44 0.56,0.29 1,0.7 1.31,1.23 0.31,0.53 0.47,1.15 0.47,1.87 0,0.7 -0.16,1.31 -0.47,1.85 -0.31,0.53 -0.75,0.95 -1.31,1.24 -0.56,0.29 -1.22,0.44 -1.98,0.44 h -1.98 v 4.52 h -1.86 z m 1.86,-6.19 h 1.98 c 0.57,0 1.03,-0.17 1.37,-0.51 0.34,-0.34 0.52,-0.79 0.52,-1.35 0,-0.58 -0.17,-1.04 -0.52,-1.37 -0.34,-0.33 -0.8,-0.5 -1.37,-0.5 h -1.98 z" />
    <path
   id="path7"
   class="fil2"
   d="m 55.93,146.06 c -0.78,0 -1.46,-0.13 -2.03,-0.4 -0.57,-0.26 -1.01,-0.64 -1.32,-1.13 -0.31,-0.49 -0.47,-1.06 -0.47,-1.71 h 1.84 c 0,0.5 0.18,0.89 0.54,1.17 0.36,0.29 0.85,0.43 1.48,0.43 0.58,0 1.04,-0.14 1.38,-0.42 0.34,-0.28 0.51,-0.67 0.51,-1.17 0,-0.41 -0.12,-0.77 -0.35,-1.07 -0.23,-0.3 -0.57,-0.5 -1,-0.61 l -1.4,-0.4 c -0.88,-0.24 -1.55,-0.66 -2.03,-1.26 -0.48,-0.6 -0.71,-1.31 -0.71,-2.13 0,-0.66 0.15,-1.22 0.44,-1.7 0.29,-0.48 0.7,-0.85 1.24,-1.12 0.53,-0.27 1.17,-0.4 1.9,-0.4 1.1,0 1.97,0.29 2.62,0.86 0.64,0.58 0.97,1.35 0.98,2.31 h -1.86 c 0,-0.48 -0.15,-0.85 -0.46,-1.13 -0.31,-0.27 -0.74,-0.41 -1.3,-0.41 -0.54,0 -0.96,0.13 -1.26,0.39 -0.3,0.26 -0.45,0.62 -0.45,1.07 0,0.42 0.11,0.78 0.34,1.08 0.23,0.3 0.55,0.51 0.98,0.64 l 1.44,0.41 c 0.88,0.23 1.55,0.65 2.02,1.24 0.47,0.59 0.71,1.32 0.71,2.17 0,0.66 -0.16,1.23 -0.47,1.72 -0.31,0.49 -0.75,0.87 -1.31,1.15 -0.56,0.28 -1.22,0.41 -1.98,0.41 z" />
    <polygon
   id="polygon7"
   class="fil2"
   points="64.48,144.27 64.48,135.96 62.15,135.96 62.15,134.33 68.68,134.33 68.68,135.96 66.35,135.96 66.35,144.27 68.68,144.27 68.68,145.9 62.15,145.9 62.15,144.27 " />
    <path
   id="path8"
   class="fil2"
   d="m 84.51,146.06 c -0.76,0 -1.41,-0.13 -1.96,-0.38 -0.54,-0.25 -0.96,-0.62 -1.26,-1.09 -0.3,-0.48 -0.45,-1.04 -0.46,-1.7 h 1.43 c 0,0.58 0.2,1.04 0.59,1.38 0.4,0.34 0.95,0.51 1.66,0.51 0.67,0 1.19,-0.16 1.56,-0.49 0.38,-0.33 0.56,-0.78 0.56,-1.36 0,-0.47 -0.12,-0.87 -0.37,-1.22 -0.25,-0.35 -0.61,-0.59 -1.07,-0.73 l -1.57,-0.49 c -0.79,-0.24 -1.4,-0.65 -1.83,-1.22 -0.43,-0.57 -0.64,-1.24 -0.64,-2.01 0,-0.62 0.14,-1.17 0.42,-1.63 0.28,-0.46 0.67,-0.82 1.18,-1.08 0.51,-0.26 1.1,-0.39 1.79,-0.39 1.02,0 1.83,0.28 2.44,0.85 0.61,0.57 0.93,1.32 0.94,2.26 h -1.43 c 0,-0.57 -0.17,-1.02 -0.52,-1.34 -0.34,-0.32 -0.83,-0.48 -1.45,-0.48 -0.61,0 -1.09,0.15 -1.44,0.44 -0.34,0.3 -0.52,0.71 -0.52,1.24 0,0.48 0.13,0.89 0.38,1.24 0.25,0.35 0.62,0.6 1.09,0.75 l 1.59,0.51 c 0.77,0.24 1.37,0.66 1.79,1.24 0.42,0.58 0.64,1.26 0.64,2.05 0,0.63 -0.15,1.19 -0.44,1.67 -0.3,0.48 -0.71,0.85 -1.25,1.11 -0.53,0.26 -1.16,0.4 -1.86,0.4 z" />
    <path
   id="path9"
   class="fil2"
   d="m 93.25,145.9 v -4.33 l -3.49,-7.25 h 1.48 l 2.3,4.76 c 0.13,0.26 0.23,0.49 0.3,0.67 0.07,0.18 0.12,0.32 0.14,0.4 0.02,-0.08 0.07,-0.22 0.15,-0.4 0.08,-0.19 0.18,-0.41 0.31,-0.67 l 2.25,-4.76 h 1.48 l -3.49,7.25 v 4.33 z" />
    <path
   id="path10"
   class="fil2"
   d="m 103.55,146.06 c -0.76,0 -1.41,-0.13 -1.96,-0.38 -0.54,-0.25 -0.96,-0.62 -1.26,-1.09 -0.3,-0.48 -0.45,-1.04 -0.46,-1.7 h 1.43 c 0,0.58 0.2,1.04 0.59,1.38 0.4,0.34 0.95,0.51 1.66,0.51 0.67,0 1.19,-0.16 1.56,-0.49 0.38,-0.33 0.56,-0.78 0.56,-1.36 0,-0.47 -0.12,-0.87 -0.37,-1.22 -0.25,-0.35 -0.61,-0.59 -1.07,-0.73 l -1.57,-0.49 c -0.79,-0.24 -1.4,-0.65 -1.83,-1.22 -0.43,-0.57 -0.64,-1.24 -0.64,-2.01 0,-0.62 0.14,-1.17 0.42,-1.63 0.28,-0.46 0.67,-0.82 1.18,-1.08 0.51,-0.26 1.1,-0.39 1.79,-0.39 1.02,0 1.83,0.28 2.44,0.85 0.61,0.57 0.93,1.32 0.94,2.26 h -1.43 c 0,-0.57 -0.17,-1.02 -0.52,-1.34 -0.34,-0.32 -0.83,-0.48 -1.45,-0.48 -0.61,0 -1.09,0.15 -1.44,0.44 -0.34,0.3 -0.52,0.71 -0.52,1.24 0,0.48 0.13,0.89 0.38,1.24 0.25,0.35 0.62,0.6 1.09,0.75 l 1.59,0.51 c 0.77,0.24 1.37,0.66 1.79,1.24 0.42,0.58 0.64,1.26 0.64,2.05 0,0.63 -0.15,1.19 -0.44,1.67 -0.3,0.48 -0.71,0.85 -1.25,1.11 -0.53,0.26 -1.16,0.4 -1.86,0.4 z" />
    <polygon
   id="polygon10"
   class="fil2"
   points="109.11,135.61 109.11,134.31 116.89,134.31 116.89,135.61 113.71,135.61 113.71,145.9 112.28,145.9 112.28,135.61 " />
    <polygon
   id="polygon11"
   class="fil2"
   points="126.01,134.33 126.01,135.63 120.75,135.63 120.75,139.21 125.45,139.21 125.45,140.5 120.75,140.5 120.75,144.6 126.01,144.6 126.01,145.9 119.34,145.9 119.34,134.33 " />
    <path
   id="path11"
   class="fil2"
   d="m 128.48,145.9 v -11.58 h 1.87 l 1.21,3.74 c 0.12,0.34 0.22,0.67 0.32,1.01 0.09,0.33 0.16,0.59 0.21,0.77 0.05,-0.18 0.12,-0.44 0.21,-0.77 0.08,-0.33 0.18,-0.67 0.29,-1.02 l 1.14,-3.73 h 1.87 v 11.58 h -1.4 v -4.2 c 0,-0.47 0.02,-0.99 0.05,-1.59 0.03,-0.59 0.07,-1.2 0.13,-1.82 0.05,-0.62 0.11,-1.21 0.17,-1.78 0.06,-0.57 0.11,-1.06 0.15,-1.48 l -1.87,5.79 h -1.51 l -1.89,-5.79 c 0.05,0.41 0.11,0.89 0.16,1.44 0.05,0.54 0.1,1.12 0.14,1.73 0.04,0.61 0.08,1.21 0.11,1.82 0.03,0.6 0.05,1.16 0.05,1.68 v 4.2 h -1.4 z" />
    <path
   class="fil2"
   d="m 43.64,160.41 v -5.88 h 1.14 l 0.58,1.88 c 0.06,0.18 0.11,0.35 0.15,0.51 0.04,0.16 0.06,0.28 0.08,0.35 0.02,-0.08 0.04,-0.19 0.08,-0.35 0.04,-0.16 0.08,-0.33 0.14,-0.51 l 0.56,-1.88 h 1.14 v 5.88 h -0.89 v -1.9 c 0,-0.26 0.01,-0.55 0.02,-0.86 0.02,-0.31 0.04,-0.63 0.06,-0.94 0.02,-0.32 0.05,-0.62 0.08,-0.91 0.03,-0.29 0.06,-0.54 0.08,-0.75 l -0.83,2.81 h -0.89 l -0.85,-2.81 c 0.03,0.2 0.05,0.44 0.08,0.72 0.03,0.28 0.05,0.57 0.08,0.89 0.02,0.31 0.04,0.63 0.06,0.95 0.02,0.32 0.02,0.62 0.02,0.9 v 1.9 z"
   id="path12" />
    <path
   id="path13"
   class="fil2"
   d="m 48.61,160.41 v -0.85 h 1.56 v -2.73 h -1.35 v -0.85 h 2.26 v 3.58 h 1.4 v 0.85 h -3.86 z m 1.93,-5.19 c -0.2,0 -0.35,-0.05 -0.47,-0.15 -0.11,-0.1 -0.17,-0.24 -0.17,-0.41 0,-0.18 0.06,-0.32 0.17,-0.42 0.11,-0.1 0.27,-0.15 0.47,-0.15 0.2,0 0.35,0.05 0.47,0.15 0.11,0.1 0.17,0.24 0.17,0.42 0,0.17 -0.06,0.31 -0.17,0.41 -0.11,0.1 -0.27,0.15 -0.47,0.15 z" />
    <path
   id="path14"
   class="fil2"
   d="m 53.46,160.41 v -4.43 h 0.93 v 0.85 h 0.24 l -0.24,0.22 c 0,-0.36 0.11,-0.64 0.32,-0.84 0.21,-0.2 0.5,-0.3 0.87,-0.3 0.44,0 0.79,0.14 1.06,0.43 0.26,0.28 0.39,0.67 0.39,1.16 v 2.92 h -0.94 v -2.83 c 0,-0.28 -0.07,-0.49 -0.22,-0.64 -0.15,-0.15 -0.35,-0.23 -0.61,-0.23 -0.26,0 -0.47,0.08 -0.62,0.24 -0.15,0.16 -0.23,0.38 -0.23,0.67 v 2.79 h -0.94 z" />
    <path
   id="path15"
   class="fil2"
   d="m 60.06,160.49 c -0.37,0 -0.68,-0.07 -0.96,-0.21 -0.27,-0.14 -0.49,-0.34 -0.64,-0.6 -0.15,-0.26 -0.23,-0.56 -0.23,-0.91 v -1.14 c 0,-0.34 0.08,-0.65 0.23,-0.91 0.15,-0.26 0.36,-0.46 0.64,-0.6 0.27,-0.14 0.59,-0.21 0.96,-0.21 0.37,0 0.69,0.07 0.96,0.21 0.27,0.14 0.48,0.34 0.63,0.6 0.15,0.26 0.23,0.56 0.23,0.91 v 0.8 h -2.74 v 0.35 c 0,0.32 0.08,0.56 0.24,0.73 0.16,0.17 0.39,0.25 0.69,0.25 0.24,0 0.44,-0.04 0.58,-0.13 0.15,-0.09 0.24,-0.21 0.28,-0.36 h 0.93 c -0.07,0.38 -0.27,0.68 -0.6,0.9 -0.33,0.23 -0.73,0.34 -1.2,0.34 z m 0.92,-2.62 v -0.25 c 0,-0.32 -0.08,-0.56 -0.23,-0.73 -0.15,-0.17 -0.38,-0.25 -0.69,-0.25 -0.3,0 -0.52,0.09 -0.68,0.26 -0.16,0.17 -0.24,0.41 -0.24,0.73 v 0.19 l 1.9,-0.01 -0.06,0.07 z" />
    <path
   id="path16"
   class="fil2"
   d="m 63.27,160.41 v -4.43 h 0.89 v 0.85 h 0.23 l -0.28,0.52 c 0,-0.48 0.11,-0.84 0.32,-1.08 0.21,-0.24 0.53,-0.37 0.94,-0.37 0.48,0 0.85,0.15 1.13,0.44 0.27,0.29 0.41,0.7 0.41,1.22 v 0.31 h -0.97 v -0.24 c 0,-0.3 -0.08,-0.53 -0.23,-0.69 -0.15,-0.16 -0.36,-0.24 -0.63,-0.24 -0.27,0 -0.49,0.08 -0.64,0.25 -0.15,0.16 -0.23,0.39 -0.23,0.69 v 2.79 h -0.94 z" />
    <path
   id="path17"
   class="fil2"
   d="m 67.94,160.41 v -0.85 h 1.56 v -2.73 h -1.35 v -0.85 h 2.26 v 3.58 h 1.4 v 0.85 h -3.86 z m 1.35,-5.2 0.85,-1.13 h 1.01 l -0.92,1.13 z" />
    <path
   id="path18"
   class="fil2"
   d="m 74.1,160.49 c -0.46,0 -0.82,-0.12 -1.08,-0.36 -0.27,-0.24 -0.4,-0.57 -0.4,-0.98 0,-0.43 0.14,-0.76 0.43,-1 0.29,-0.24 0.69,-0.35 1.2,-0.35 h 1.17 v -0.39 c 0,-0.23 -0.07,-0.4 -0.22,-0.53 -0.14,-0.13 -0.35,-0.19 -0.6,-0.19 -0.23,0 -0.42,0.05 -0.58,0.15 -0.15,0.1 -0.24,0.24 -0.27,0.41 h -0.92 c 0.05,-0.41 0.24,-0.73 0.56,-0.97 0.32,-0.24 0.73,-0.36 1.23,-0.36 0.54,0 0.96,0.13 1.27,0.4 0.31,0.27 0.47,0.63 0.47,1.1 v 3.01 h -0.92 v -0.79 h -0.15 l 0.16,-0.19 c 0,0.33 -0.12,0.59 -0.37,0.78 -0.25,0.19 -0.57,0.29 -0.97,0.29 z m 0.3,-0.71 c 0.3,0 0.54,-0.08 0.73,-0.23 0.19,-0.15 0.29,-0.35 0.29,-0.58 v -0.56 h -1.15 c -0.21,0 -0.39,0.06 -0.52,0.18 -0.13,0.12 -0.19,0.28 -0.19,0.49 0,0.22 0.08,0.39 0.23,0.52 0.15,0.13 0.36,0.19 0.62,0.19 z" />
    <polygon
   id="polygon18"
   class="fil2"
   points="83.76,159.58 83.76,155.36 82.57,155.36 82.57,154.53 85.89,154.53 85.89,155.36 84.71,155.36 84.71,159.58 85.89,159.58 85.89,160.41 82.57,160.41 82.57,159.58 " />
    <path
   id="path19"
   class="fil2"
   d="m 89.07,160.49 c -0.37,0 -0.69,-0.07 -0.96,-0.21 -0.27,-0.14 -0.48,-0.34 -0.63,-0.6 -0.15,-0.26 -0.23,-0.57 -0.23,-0.92 v -1.11 c 0,-0.35 0.08,-0.66 0.23,-0.92 0.15,-0.26 0.36,-0.46 0.63,-0.6 0.27,-0.14 0.59,-0.21 0.96,-0.21 0.38,0 0.7,0.07 0.97,0.21 0.27,0.14 0.48,0.34 0.63,0.6 0.15,0.26 0.23,0.57 0.23,0.91 v 1.12 c 0,0.35 -0.08,0.66 -0.23,0.92 -0.15,0.26 -0.36,0.46 -0.63,0.6 -0.27,0.14 -0.59,0.21 -0.97,0.21 z m 0,-0.82 c 0.28,0 0.5,-0.08 0.65,-0.23 0.16,-0.16 0.23,-0.38 0.23,-0.68 v -1.11 c 0,-0.3 -0.08,-0.53 -0.23,-0.68 -0.16,-0.15 -0.37,-0.23 -0.65,-0.23 -0.27,0 -0.49,0.08 -0.65,0.23 -0.16,0.15 -0.24,0.38 -0.24,0.68 v 1.11 c 0,0.3 0.08,0.52 0.24,0.68 0.16,0.16 0.38,0.23 0.65,0.23 z" />
    <polygon
   id="polygon19"
   class="fil2"
   points="91.87,155.39 91.87,154.52 95.93,154.52 95.93,155.39 94.37,155.39 94.37,160.41 93.43,160.41 93.43,155.39 " />
    <polygon
   id="polygon20"
   class="fil2"
   points="101.71,159.22 101.71,157.83 103.98,154.53 105.03,154.53 102.61,158.08 102.61,158.38 104.33,158.38 104.33,157.03 105.27,157.03 105.27,160.41 104.33,160.41 104.33,159.22 " />
    <path
   id="path20"
   class="fil2"
   d="m 108.4,160.49 c -0.23,0 -0.4,-0.07 -0.54,-0.2 -0.13,-0.13 -0.2,-0.31 -0.2,-0.53 0,-0.23 0.07,-0.41 0.2,-0.54 0.13,-0.13 0.31,-0.2 0.54,-0.2 0.23,0 0.4,0.07 0.54,0.2 0.13,0.13 0.2,0.31 0.2,0.54 0,0.22 -0.07,0.4 -0.2,0.53 -0.13,0.13 -0.31,0.2 -0.54,0.2 z" />
    <path
   id="path21"
   class="fil2"
   d="m 113.24,160.49 c -0.38,0 -0.7,-0.07 -0.98,-0.22 -0.28,-0.15 -0.49,-0.35 -0.64,-0.61 -0.15,-0.26 -0.23,-0.57 -0.23,-0.92 v -2.55 c 0,-0.35 0.08,-0.66 0.23,-0.92 0.15,-0.26 0.36,-0.46 0.64,-0.61 0.28,-0.15 0.6,-0.22 0.98,-0.22 0.38,0 0.71,0.07 0.98,0.22 0.27,0.14 0.49,0.35 0.64,0.61 0.15,0.26 0.23,0.57 0.23,0.92 v 2.55 c 0,0.35 -0.07,0.66 -0.23,0.92 -0.15,0.26 -0.36,0.47 -0.64,0.61 -0.28,0.14 -0.6,0.22 -0.98,0.22 z m 0,-0.81 c 0.29,0 0.52,-0.09 0.69,-0.26 0.17,-0.17 0.26,-0.4 0.26,-0.68 v -2.55 c 0,-0.28 -0.09,-0.51 -0.26,-0.68 -0.17,-0.17 -0.4,-0.26 -0.69,-0.26 -0.29,0 -0.52,0.09 -0.69,0.26 -0.17,0.17 -0.26,0.4 -0.26,0.68 v 2.55 c 0,0.28 0.09,0.51 0.26,0.68 0.17,0.17 0.4,0.26 0.69,0.26 z m 0,-1.71 c -0.16,0 -0.28,-0.05 -0.38,-0.14 -0.09,-0.1 -0.14,-0.23 -0.14,-0.39 0,-0.16 0.05,-0.28 0.14,-0.37 0.09,-0.09 0.22,-0.14 0.38,-0.14 0.16,0 0.28,0.05 0.37,0.14 0.09,0.09 0.14,0.22 0.14,0.37 0,0.16 -0.05,0.29 -0.14,0.39 -0.09,0.1 -0.22,0.14 -0.37,0.14 z" />
    <line
   class="fil3 str0"
   x1="36.330002"
   y1="150.08"
   x2="126.02"
   y2="150.08"
   id="line21" />
   </g>
   <g
   id="g25">
    <g
   id="g23">
     <path
   class="fil4"
   d="m 146.32,145.15 h 1.44 v 16.27 h -1.44 c -0.88,0 -1.59,-0.72 -1.59,-1.59 v -13.08 c 0,-0.88 0.72,-1.59 1.59,-1.59 z"
   id="path22" />
     <path
   class="fil4"
   d="m 176.84,145.15 h 1.44 c 0.88,0 1.59,0.72 1.59,1.59 v 13.08 c 0,0.88 -0.72,1.59 -1.59,1.59 h -1.44 v -16.27 z"
   id="path23" />
     <rect
   class="fil5"
   x="147.75999"
   y="145.14999"
   width="29.08"
   height="16.27"
   id="rect23" />
    </g>
    <polygon
   class="fil2"
   points="154.74,149.58 155.62,149.58 155.62,156.33 157.5,156.33 157.5,157.33 152.64,157.33 152.64,156.33 154.52,156.33 154.52,150.82 152.64,151.91 152.64,150.79 "
   id="polygon23" />
    <path
   id="path24"
   class="fil2"
   d="m 160.05,156.39 h 2.93 v -2.57 h -2.93 z m 0,-3.56 h 2.93 v -2.3 h -2.93 z m 2.75,4.56 h -2.75 l -1.11,-0.74 v -2.75 l 0.96,-0.55 v -0.02 l -0.96,-0.55 v -2.49 l 1.28,-0.74 h 2.58 l 1.28,0.74 v 2.49 l -0.96,0.55 v 0.02 l 0.96,0.55 v 2.75 z" />
    <path
   id="path25"
   class="fil2"
   d="m 167.18,150.52 v 2.72 l 0.79,-0.45 h 1.86 l 1.28,0.74 v 3.11 l -1.28,0.74 h -2.47 l -1.28,-0.74 v -6.37 l 1.28,-0.74 h 2.47 l 1.28,0.74 v 1.25 H 170 v -1 z m 0,3.26 v 2.6 H 170 v -2.6 z" />
   </g>
   <g
   id="g40">
    <polygon
   class="fil3 str1"
   points="55.45,124.93 49.84,124.93 44.24,124.93 41.44,120.07 38.64,115.22 41.44,110.37 44.24,105.51 49.84,105.51 55.45,105.51 58.25,110.37 61.06,115.22 58.25,120.07 "
   id="polygon25" />
    <polygon
   class="fil3 str2"
   points="52.33,70.29 45.71,70.29 39.1,70.29 35.79,64.56 32.48,58.83 35.79,53.11 39.1,47.38 45.71,47.38 52.33,47.38 55.64,53.11 58.94,58.83 55.64,64.56 "
   id="polygon26" />
    <polygon
   class="fil3 str3"
   points="81.92,121.8 77.83,121.8 73.74,121.8 71.69,118.26 69.65,114.72 71.69,111.17 73.74,107.63 77.83,107.63 81.92,107.63 83.96,111.17 86.01,114.72 83.96,118.26 "
   id="polygon27" />
    <polygon
   class="fil3 str4"
   points="45.92,91.32 43.58,91.32 41.23,91.32 40.06,89.29 38.89,87.26 40.06,85.24 41.23,83.21 43.58,83.21 45.92,83.21 47.09,85.24 48.26,87.26 47.09,89.29 "
   id="polygon28" />
    <polygon
   class="fil3 str5"
   points="66.58,101.04 64.93,101.04 63.29,101.04 62.47,99.62 61.65,98.19 62.47,96.77 63.29,95.35 64.93,95.35 66.58,95.35 67.4,96.77 68.22,98.19 67.4,99.62 "
   id="polygon29" />
    <polygon
   class="fil3 str6"
   points="79.94,74.35 77.25,74.35 74.55,74.35 73.21,72.02 71.86,69.69 73.21,67.35 74.55,65.02 77.25,65.02 79.94,65.02 81.29,67.35 82.63,69.69 81.29,72.02 "
   id="polygon30" />
    <polygon
   class="fil3 str7"
   points="110.32,103.93 106.23,103.93 102.14,103.93 100.09,100.39 98.05,96.85 100.09,93.31 102.14,89.77 106.23,89.77 110.32,89.77 112.36,93.31 114.41,96.85 112.36,100.39 "
   id="polygon31" />
    <polygon
   class="fil3 str8"
   points="66.45,92.98 63.76,92.98 61.07,92.98 59.72,90.64 58.38,88.31 59.72,85.98 61.07,83.65 63.76,83.65 66.45,83.65 67.8,85.98 69.15,88.31 67.8,90.64 "
   id="polygon32" />
    <polygon
   class="fil3 str9"
   points="74.24,98.8 72.6,98.8 70.96,98.8 70.14,97.38 69.32,95.96 70.14,94.54 70.96,93.11 72.6,93.11 74.24,93.11 75.07,94.54 75.89,95.96 75.07,97.38 "
   id="polygon33" />
    <polygon
   class="fil3 str10"
   points="75.87,86.81 74.23,86.81 72.59,86.81 71.77,85.39 70.94,83.96 71.77,82.54 72.59,81.12 74.23,81.12 75.87,81.12 76.69,82.54 77.51,83.96 76.69,85.39 "
   id="polygon34" />
    <polygon
   class="fil3 str11"
   points="66.15,80.51 64.51,80.51 62.87,80.51 62.05,79.09 61.23,77.67 62.05,76.24 62.87,74.82 64.51,74.82 66.15,74.82 66.97,76.24 67.8,77.67 66.97,79.09 "
   id="polygon35" />
    <polygon
   class="fil3 str12"
   points="56.53,85.56 54.88,85.56 53.24,85.56 52.42,84.14 51.6,82.71 52.42,81.29 53.24,79.87 54.88,79.87 56.53,79.87 57.35,81.29 58.17,82.71 57.35,84.14 "
   id="polygon36" />
    <polygon
   class="fil3 str13"
   points="57.28,96.45 55.64,96.45 54,96.45 53.18,95.03 52.36,93.61 53.18,92.19 54,90.76 55.64,90.76 57.28,90.76 58.1,92.19 58.93,93.61 58.1,95.03 "
   id="polygon37" />
    <line
   class="fil3 str14"
   x1="69.150002"
   y1="88.309998"
   x2="98.050003"
   y2="96.849998"
   id="line37" />
    <line
   class="fil3 str14"
   x1="52.330002"
   y1="70.290001"
   x2="61.23"
   y2="77.669998"
   id="line38" />
    <line
   class="fil3 str14"
   x1="74.550003"
   y1="74.349998"
   x2="66.449997"
   y2="83.650002"
   id="line39" />
    <line
   class="fil3 str15"
   x1="61.07"
   y1="92.980003"
   x2="55.450001"
   y2="105.51"
   id="line40" />
   </g>
   <g
   id="g41">
    <polygon
   class="fil0 str16"
   points="13.75,33.21 11.9,33.21 10.06,33.21 9.13,31.61 8.21,30.01 9.13,28.41 10.06,26.81 11.9,26.81 13.75,26.81 14.68,28.41 15.6,30.01 14.68,31.61 "
   id="polygon40" />
    <polygon
   class="fil1 str17"
   points="12.83,31.61 11.9,31.61 10.98,31.61 10.52,30.81 10.05,30.01 10.52,29.21 10.98,28.41 11.9,28.41 12.83,28.41 13.29,29.21 13.75,30.01 13.29,30.81 "
   id="polygon41" />
   </g>
   <g
   id="g43">
    <polygon
   class="fil0 str18"
   points="179.02,33.21 177.17,33.21 175.32,33.21 174.4,31.61 173.47,30.01 174.4,28.41 175.32,26.81 177.17,26.81 179.02,26.81 179.94,28.41 180.87,30.01 179.94,31.61 "
   id="polygon42" />
    <polygon
   class="fil1 str19"
   points="178.09,31.61 177.17,31.61 176.24,31.61 175.78,30.81 175.32,30.01 175.78,29.21 176.24,28.41 177.17,28.41 178.09,28.41 178.56,29.21 179.02,30.01 178.56,30.81 "
   id="polygon43" />
   </g>
   <g
   id="g45">
    <polygon
   class="fil0 str20"
   points="13.75,176.16 11.9,176.16 10.06,176.16 9.13,174.56 8.21,172.96 9.13,171.36 10.06,169.76 11.9,169.76 13.75,169.76 14.68,171.36 15.6,172.96 14.68,174.56 "
   id="polygon44" />
    <polygon
   class="fil1 str21"
   points="12.83,174.56 11.9,174.56 10.98,174.56 10.52,173.76 10.05,172.96 10.52,172.16 10.98,171.36 11.9,171.36 12.83,171.36 13.29,172.16 13.75,172.96 13.29,173.76 "
   id="polygon45" />
   </g>
   <g
   id="g47">
    <polygon
   class="fil0 str22"
   points="179.02,176.16 177.17,176.16 175.32,176.16 174.4,174.56 173.47,172.96 174.4,171.36 175.32,169.76 177.17,169.76 179.02,169.76 179.94,171.36 180.87,172.96 179.94,174.56 "
   id="polygon46" />
    <polygon
   class="fil1 str23"
   points="178.09,174.56 177.17,174.56 176.24,174.56 175.78,173.76 175.32,172.96 175.78,172.16 176.24,171.36 177.17,171.36 178.09,171.36 178.56,172.16 179.02,172.96 178.56,173.76 "
   id="polygon47" />
   </g>
  </g>
 </g>
</svg>
