<svg xmlns="http://www.w3.org/2000/svg" xml:space="preserve" width="141.041mm" height="32.2977mm" version="1.1" style="shape-rendering:geometricPrecision; text-rendering:geometricPrecision; image-rendering:optimizeQuality; fill-rule:evenodd; clip-rule:evenodd"
viewBox="0 0 855.68 195.95"
 xmlns:xlink="http://www.w3.org/1999/xlink"
 xmlns:xodm="http://www.corel.com/coreldraw/odm/2003">
 <defs>
  <style type="text/css">
   <![CDATA[
    .fil0 {fill:#CDBE78}
    .fil1 {fill:#CDBE78;fill-rule:nonzero}
   ]]>
  </style>
 </defs>
 <g id="Capa_x0020_1">
  <metadata id="CorelCorpID_0Corel-Layer"/>
  <g id="_2811337184656">
   <g>
    <circle class="fil0" cx="758.9" cy="176.71" r="19.24"/>
    <g>
     <path class="fil1" d="M125.69 18.44l-23.76 23.76c-5.97,-5.09 -12.81,-8 -20.57,-8.81 -7.72,-0.77 -15.06,0.25 -21.97,3.09 -6.95,2.84 -12.78,7.27 -17.55,13.27 -4.77,6 -7.16,13.2 -7.16,21.65 0,17.34 6.53,29.69 19.58,37.06 13.09,7.37 26.92,7.3 41.52,-0.17l-0.28 -18.9 0 -0.02 16.92 -16.95 0.07 0 17.29 0 0.42 46.05c-11.09,13.79 -24.22,22.35 -39.38,25.65 -15.16,3.33 -29.52,2.49 -43.13,-2.49 -13.62,-5.02 -25.09,-13.65 -34.43,-25.87 -9.37,-12.25 -13.79,-27.02 -13.23,-44.36 0.42,-16.25 5.09,-30.01 14.04,-41.31 8.95,-11.27 19.79,-19.44 32.6,-24.5 12.77,-5.09 26.32,-6.7 40.64,-4.84 14.35,1.86 27.13,7.76 38.36,17.69zm-30.18 70.92l16.92 -16.95 -16.92 16.95z"/>
     <path class="fil1" d="M180.13 4.63l3.79 3.19 0 83c3.79,9.96 8.84,16.69 15.15,20.27 6.35,3.54 12.66,4.87 18.9,3.93 6.28,-0.91 11.89,-3.65 16.87,-8.17 4.98,-4.52 8.03,-9.85 9.19,-16.02 0,-15.04 0,-30.16 0,-45.3 0,-15.11 0,-30.3 0,-45.51l31.56 0 0 92.04c-4.52,20.62 -13.32,35.1 -26.4,43.37 -13.08,8.28 -26.68,11.75 -40.74,10.41 -14.06,-1.33 -26.72,-6.8 -37.91,-16.45 -11.18,-9.61 -17.11,-22.06 -17.71,-37.34l0 -60.07 27.31 -27.35z"/>
     <polygon class="fil1" points="298.18,146.11 298.18,1.97 340.49,1.97 402.44,90.73 402.44,29.17 431.57,0 437.26,3.3 437.26,146.11 398.33,146.11 335.43,56.44 335.43,146.11 "/>
     <path class="fil1" d="M548.35 4.35l0 106.36c-4.24,14.16 -11.21,23.94 -20.92,29.37 -9.71,5.4 -19.59,7.18 -29.58,5.33 -9.99,-1.86 -18.82,-6.97 -26.49,-15.35 -7.64,-8.38 -11.49,-19.24 -11.49,-32.59l28.14 0c0.49,8.41 4.66,13.28 12.58,14.58 7.89,1.3 13.07,-2.07 15.56,-10.06l0 -73.1 28.63 -28.88 3.57 4.35z"/>
     <path class="fil1" d="M643.95 0c20.12,0 37.33,7.18 51.66,21.48 14.3,14.3 21.45,31.47 21.45,51.52 0,20.15 -7.15,37.36 -21.45,51.66 -14.33,14.3 -31.54,21.45 -51.66,21.45 -20.12,0 -37.32,-7.15 -51.59,-21.45 -14.26,-14.3 -21.41,-31.51 -21.41,-51.66 0,-20.05 7.15,-37.22 21.41,-51.52 14.26,-14.3 31.47,-21.48 51.59,-21.48zm0 33.57c-10.9,0 -20.19,3.89 -27.93,11.64 -7.75,7.71 -11.6,17 -11.6,27.79 0,10.9 3.86,20.22 11.6,27.93 7.74,7.75 17.03,11.6 27.93,11.6 10.87,0 20.19,-3.85 27.93,-11.6 7.71,-7.71 11.6,-17.03 11.6,-27.93 0,-10.79 -3.89,-20.08 -11.6,-27.79 -7.75,-7.74 -17.07,-11.64 -27.93,-11.64z"/>
     <path class="fil1" d="M778.18 34.2l0 28.93 31.39 0c6.57,0 10,-6.08 10.79,-13.74 0.79,-7.66 -2.81,-12.72 -10.79,-15.18l-31.39 0zm-38.42 -34.2l81.97 0c14.48,6.33 24.08,14.69 28.79,25.1 4.71,10.37 6.19,20.63 4.46,30.72 -1.69,10.09 -5.76,18.95 -12.2,26.54 -6.4,7.56 -13.43,11.67 -21.05,12.3l-43.55 0 0 18.42 -33.07 33.04 -5.45 -7.42 0.11 -138.7z"/>
    </g>
   </g>
  </g>
 </g>
</svg>
