<?xml version="1.0" encoding="UTF-8" standalone="no"?>
<!-- Created with Inkscape (http://www.inkscape.org/) -->

<svg
   width="71.455132mm"
   height="8.15763mm"
   viewBox="0 0 71.455132 8.15763"
   version="1.1"
   id="svg1"
   xml:space="preserve"
   xmlns:inkscape="http://www.inkscape.org/namespaces/inkscape"
   xmlns:sodipodi="http://sodipodi.sourceforge.net/DTD/sodipodi-0.dtd"
   xmlns="http://www.w3.org/2000/svg"
   xmlns:svg="http://www.w3.org/2000/svg"><sodipodi:namedview
     id="namedview1"
     pagecolor="#ffffff"
     bordercolor="#000000"
     borderopacity="0.25"
     inkscape:showpageshadow="2"
     inkscape:pageopacity="0.0"
     inkscape:pagecheckerboard="0"
     inkscape:deskcolor="#d1d1d1"
     inkscape:document-units="mm"
     showguides="false" /><defs
     id="defs1" /><g
     inkscape:label="Capa 1"
     inkscape:groupmode="layer"
     id="layer1"
     transform="translate(-114.49979,-44.722533)"><g
       id="logo"
       transform="matrix(0.26458333,0,0,0.26458333,64.737492,28.411233)"><path
         id="Path_320"
         data-name="Path 320"
         d="m 188.078,62.539 h 6.087 v 23.894 h 14.546 v 5.237 h -20.633 z"
         fill="#0063a8" /><path
         id="Path_321"
         data-name="Path 321"
         d="m 212.559,62.539 h 6.186 V 80.43 a 10.121,10.121 0 0 0 0.709,4.384 q 1.1,2.449 4.805,2.449 3.683,0 4.785,-2.449 a 10.136,10.136 0 0 0 0.709,-4.384 V 62.539 h 6.186 v 17.906 a 15.021,15.021 0 0 1 -1.44,7.233 q -2.683,4.743 -10.24,4.743 -7.557,0 -10.259,-4.743 a 15.021,15.021 0 0 1 -1.44,-7.233 z"
         fill="#0063a8" /><path
         id="Path_322"
         data-name="Path 322"
         d="m 242.3,62.539 h 6.381 l 11.564,20.312 V 62.539 h 5.672 V 91.67 h -6.086 L 247.969,71 V 91.67 H 242.3 Z"
         fill="#0063a8" /><path
         id="Path_323"
         data-name="Path 323"
         d="m 289.869,63.172 a 9.63,9.63 0 0 1 4.964,3.695 12.971,12.971 0 0 1 2.077,4.7 22.582,22.582 0 0 1 0.554,4.822 19.349,19.349 0 0 1 -2.334,9.842 10.532,10.532 0 0 1 -9.771,5.435 H 272.8 V 62.539 h 12.56 a 15.33,15.33 0 0 1 4.509,0.633 z M 278.708,67.6 v 19.011 h 5.622 a 6.07,6.07 0 0 0 6.017,-4.249 14.972,14.972 0 0 0 0.931,-5.554 13.647,13.647 0 0 0 -1.4,-6.828 Q 288.487,67.6 284.33,67.6 Z"
         fill="#0063a8" /><path
         id="Path_324"
         data-name="Path 324"
         d="M 308.028,91.67 H 301.98 V 62.539 h 6.048 z"
         fill="#0063a8" /><path
         id="Path_325"
         data-name="Path 325"
         d="m 314.632,62.539 h 6.382 l 11.563,20.312 V 62.539 h 5.672 V 91.67 h -6.086 L 320.3,71 v 20.67 h -5.672 z"
         fill="#0063a8" /><path
         id="Path_326"
         data-name="Path 326"
         d="m 365.853,71.63 a 5.705,5.705 0 0 0 -3.38,-4.17 8.292,8.292 0 0 0 -3.339,-0.652 7.26,7.26 0 0 0 -5.781,2.653 q -2.264,2.654 -2.263,7.979 0,5.365 2.451,7.594 a 8.053,8.053 0 0 0 5.573,2.229 7.228,7.228 0 0 0 5.02,-1.758 7.586,7.586 0 0 0 2.411,-4.606 h -6.739 V 76.037 H 371.94 V 91.67 h -4.031 l -0.613,-3.636 a 13.959,13.959 0 0 1 -3.162,2.912 11.169,11.169 0 0 1 -5.929,1.475 12.319,12.319 0 0 1 -9.486,-4.009 q -3.855,-4.029 -3.854,-11.021 0,-7.071 3.893,-11.337 a 13.272,13.272 0 0 1 10.3,-4.266 13.465,13.465 0 0 1 8.924,2.816 10.473,10.473 0 0 1 3.863,7.026 z"
         fill="#be8b2c" /><path
         id="Path_327"
         data-name="Path 327"
         d="m 400.02,89.081 q -3.3,3.4 -9.545,3.4 -6.245,0 -9.546,-3.4 -4.428,-4.17 -4.427,-12.016 0,-8 4.427,-12.016 3.3,-3.4 9.546,-3.4 6.246,0 9.545,3.4 4.407,4.012 4.407,12.016 0,7.846 -4.407,12.016 z m -3.8,-4.427 q 2.124,-2.668 2.125,-7.589 0,-4.9 -2.125,-7.579 a 6.946,6.946 0 0 0 -5.741,-2.678 7.035,7.035 0 0 0 -5.771,2.668 q -2.156,2.668 -2.154,7.589 0.002,4.921 2.154,7.589 a 7.035,7.035 0 0 0 5.771,2.668 6.954,6.954 0 0 0 5.737,-2.668 z"
         fill="#be8b2c" /><path
         id="Path_328"
         data-name="Path 328"
         d="m 409.031,62.539 h 6.087 v 23.894 h 14.546 v 5.237 h -20.633 z"
         fill="#be8b2c" /><path
         id="Path_329"
         data-name="Path 329"
         d="m 450.54,63.172 a 9.628,9.628 0 0 1 4.965,3.695 12.971,12.971 0 0 1 2.077,4.7 22.578,22.578 0 0 1 0.553,4.822 19.359,19.359 0 0 1 -2.333,9.842 10.532,10.532 0 0 1 -9.771,5.435 h -12.56 V 62.539 h 12.56 a 15.318,15.318 0 0 1 4.509,0.633 z M 439.381,67.6 V 86.611 H 445 a 6.07,6.07 0 0 0 6.017,-4.249 14.952,14.952 0 0 0 0.931,-5.554 13.659,13.659 0 0 0 -1.4,-6.828 Q 449.158,67.6 445,67.6 Z"
         fill="#be8b2c" /><path
         id="Path_330"
         data-name="Path 330"
         d="m 208.711,91.67 v -2.584 l -20.2,2.584 z"
         fill="#be8b2c" /><path
         id="Path_331"
         data-name="Path 331"
         d="m 227.1,86.734 a 6.846,6.846 0 0 1 -2.838,0.529 c -0.329,0 -0.64,-0.017 -0.938,-0.046 l -8.89,1.137 a 8.419,8.419 0 0 0 3.07,2.671 l 16.4,-2.447 a 8.687,8.687 0 0 0 0.593,-0.9 9.672,9.672 0 0 0 0.8,-1.993 z"
         fill="#be8b2c" /><g
         id="Group_269"
         data-name="Group 269"><path
           id="Path_332"
           data-name="Path 332"
           d="m 265.914,81.769 -5.672,0.726 v 0.357 l -0.189,-0.333 -5.1,0.652 1.2,2.088 9.764,-1.457 z"
           fill="#be8b2c" /><path
           id="Path_333"
           data-name="Path 333"
           d="m 242.3,87.326 5.672,-0.846 V 84.064 L 242.3,84.79 Z"
           fill="#be8b2c" /></g><g
         id="Group_270"
         data-name="Group 270"><path
           id="Path_334"
           data-name="Path 334"
           d="m 297.429,77.738 -6.23,0.8 c -0.046,0.53 -0.118,1.037 -0.209,1.526 l 6.334,-0.945 q 0.071,-0.678 0.105,-1.381 z"
           fill="#be8b2c" /><path
           id="Path_335"
           data-name="Path 335"
           d="m 272.8,80.888 v 1.887 l 5.909,-0.882 v -1.761 z"
           fill="#be8b2c" /></g><path
         id="Path_336"
         data-name="Path 336"
         d="m 301.98,78.421 6.048,-0.9 v -1.139 l -6.048,0.774 z"
         fill="#be8b2c" /><g
         id="Group_271"
         data-name="Group 271"><path
           id="Path_337"
           data-name="Path 337"
           d="m 314.632,76.533 5.672,-0.846 v -0.876 l -5.672,0.726 z"
           fill="#be8b2c" /><path
           id="Path_338"
           data-name="Path 338"
           d="m 327.478,73.894 -5.136,0.657 0.44,0.767 5.076,-0.757 z"
           fill="#be8b2c" /><path
           id="Path_339"
           data-name="Path 339"
           d="m 338.249,72.516 -5.672,0.726 v 0.614 l 5.672,-0.846 z"
           fill="#be8b2c" /></g></g></g></svg>
